# xmcd
#
# Track frame offsets: 
#        150
#        13882
#        28487
#        64605
#        83402
#        97350
#        115435
#        142705
#        155862
#        176762
#        204427
#        224887
#
# Disc length: 3229 seconds
#
# Revision: 0
# Processed by: cddbd v1.5.2PL0 Copyright (c) Steve Scherf et al.
# Submitted via: ExactAudioCopy v0.95b3
#
DISCID=b60c9b0c
DTITLE=Al Copley - Blue Paris Nights
DYEAR=1995
DGENRE=Blues
TTITLE0=That's All Right
TTITLE1=In The Night
TTITLE2=chains Of Love
TTITLE3=Drivin' Wheel
TTITLE4=Chicago Breakdown
TTITLE5=Can't Tell Her That
TTITLE6=Rainy Summer Blues
TTITLE7=There's No More Love
TTITLE8=Watermelon Man
TTITLE9=Blues After Hours
TTITLE10=Hello Little Girl
TTITLE11=Gnawa Rock
EXTD=
EXTT0=
EXTT1=
EXTT2=
EXTT3=
EXTT4=
EXTT5=
EXTT6=
EXTT7=
EXTT8=
EXTT9=
EXTT10=
EXTT11=
PLAYORDER=
